# xmcd
#
# Track frame offsets:
#	150
#	13575
#	30432
#	47775
#	70470
#	92572
#	109382
#	121105
#	141015
#	158012
#	190540
#	217787
#	243482
#
# Disc length: 3455 seconds
#
# Revision: 1
# Processed by: cddbd v1.5.1PL0 Copyright (c) Steve Scherf et al.
# Submitted via: CDex 1.50Beta5
#
DISCID=a40d7d0d
DTITLE=speena - much much more!!
DYEAR=2003
DGENRE=Rock
TTITLE0=ガーリーロック
TTITLE1=ジレンマ
TTITLE2=バブルバイブル
TTITLE3=スピーナ
TTITLE4=Calm Soul
TTITLE5=アイアンタワー
TTITLE6=エゴロック
TTITLE7=眠れる森
TTITLE8=セルフドランカー
TTITLE9=チュロリーズ リング
TTITLE10=キミだけのコト
TTITLE11=タナトス
TTITLE12=speena 2001
EXTD=
EXTT0=
EXTT1=
EXTT2=
EXTT3=
EXTT4=
EXTT5=
EXTT6=
EXTT7=
EXTT8=
EXTT9=
EXTT10=
EXTT11=
EXTT12=
PLAYORDER=
